REM MD5 58a894e4be4f8c67df5a5bb19cbb4ea8
FILE "Hogs of War (USA).bin" BINARY
  TRACK 01 MODE2/2352
    INDEX 01 00:00:00
  TRACK 02 AUDIO
    INDEX 00 40:58:07
    INDEX 01 41:00:07
  TRACK 03 AUDIO
    INDEX 00 43:47:05
    INDEX 01 43:49:05
  TRACK 04 AUDIO
    INDEX 00 44:59:01
    INDEX 01 45:01:01
REM LEADOUT 48:01:01
